<svg xmlns="http://www.w3.org/2000/svg" aria-hidden="true" style="position:absolute;width:0;height:0;overflow:hidden">
  <defs>
    <symbol id="icon-email-logo" viewBox="0 0 131 32">
      <path d="M2.836 31.792H0V21.475h5.558c.481 0 .941.064 1.379.193.443.129.833.325 1.172.588a2.8 2.8 0 0 1 .807.982c.205.392.307.853.307 1.383 0 .334-.048.65-.143.946a3.01 3.01 0 0 1-.4.802c-.167.244-.364.463-.593.659s-.479.361-.75.494a4.05 4.05 0 0 1-1.778.416H2.837v3.855zm3.515-7.172c0-.664-.169-1.185-.507-1.562-.333-.382-.838-.573-1.515-.573H2.836v4.478h1.493c.362 0 .669-.057.922-.172.257-.119.467-.284.629-.494s.281-.456.357-.738c.076-.287.114-.599.114-.939zM18.088 31.792h-7.387V21.475h7.387v1.318h-4.551v3.188h3.515v1.311h-3.515v3.181h4.551v1.318zM24.604 31.792h-2.836v-8.999h-2.8v-1.318h8.437v1.318h-2.8v8.999zM37.191 28.64c0 .444-.057.836-.171 1.175a2.717 2.717 0 0 1-1.186 1.504 3.997 3.997 0 0 1-.907.401 5.79 5.79 0 0 1-1.036.215 9.379 9.379 0 0 1-1.107.064 7.61 7.61 0 0 1-1.372-.115 5.33 5.33 0 0 1-1.186-.344 5.575 5.575 0 0 1-1.064-.623 7.718 7.718 0 0 1-1.014-.924l1.457-1.483c.133.33.317.635.55.917.233.277.488.516.764.716.281.201.572.358.872.473s.583.172.85.172c.314 0 .61-.021.886-.064.276-.048.517-.124.722-.229s.364-.244.479-.416c.119-.177.179-.396.179-.659 0-.201-.045-.373-.136-.516s-.21-.265-.357-.365c-.143-.105-.307-.193-.493-.265s-.376-.131-.572-.179a8.517 8.517 0 0 0-.564-.136 7.925 7.925 0 0 1-.493-.129 98.594 98.594 0 0 1-.879-.258c-.305-.096-.605-.203-.9-.322s-.576-.256-.843-.408a3.314 3.314 0 0 1-.693-.552c-.2-.215-.36-.461-.479-.738a2.467 2.467 0 0 1-.179-.967c0-.435.052-.819.157-1.154.11-.339.262-.633.457-.881s.426-.456.693-.623c.267-.172.56-.308.879-.408a5.24 5.24 0 0 1 1.014-.222 8.413 8.413 0 0 1 1.107-.072c.514 0 .981.048 1.4.143.424.096.814.232 1.172.408s.683.389.979.638c.3.244.581.516.843.817l-1.457 1.483a3.295 3.295 0 0 0-.479-.931 3.502 3.502 0 0 0-.672-.709 2.914 2.914 0 0 0-.779-.459 2.085 2.085 0 0 0-.786-.165c-.329 0-.631.024-.907.072a2.288 2.288 0 0 0-.714.222 1.13 1.13 0 0 0-.457.416c-.11.172-.164.387-.164.645 0 .205.04.38.121.523s.188.265.322.365c.138.1.293.184.464.251.171.062.348.117.529.165.186.048.367.091.543.129.181.033.345.072.493.115l.9.258c.314.091.624.198.929.322.305.119.595.258.872.416s.519.346.729.566a2.4 2.4 0 0 1 .686 1.726zM94.684 31.792h-2.836V21.475h2.836v4.507h3.758v-4.507h2.836v10.317h-2.836v-4.499h-3.758v4.499zM110.994 31.792h-7.387V21.475h7.387v1.318h-4.55v3.188h3.515v1.311h-3.515v3.181h4.55v1.318zM120.138 31.792h-7.387V21.475h2.836v9.006h4.551v1.311zM124.318 31.792h-2.836V21.475h5.558c.481 0 .941.064 1.379.193a3.46 3.46 0 0 1 1.171.588c.338.258.608.585.807.982.205.392.307.853.307 1.383a2.98 2.98 0 0 1-.543 1.748c-.166.244-.364.463-.593.659s-.479.361-.75.494a4.03 4.03 0 0 1-.864.308c-.3.072-.605.108-.914.108h-2.722v3.855zm3.514-7.172c0-.664-.169-1.185-.507-1.562-.334-.382-.838-.573-1.515-.573h-1.493v4.478h1.493c.362 0 .669-.057.922-.172.257-.119.467-.284.629-.494s.281-.456.357-.738c.077-.287.114-.599.114-.939zM59.968 0c-.653 0-1.61.189-2.433.782-.87.631-1.523 1.673-1.523 3.187v2.486c.007.347.114.684.309.97.186.26.507.516 1.173.516s.987-.256 1.173-.516a1.79 1.79 0 0 0 .309-.97.995.995 0 0 1 .99-.993.99.99 0 0 1 .99.993c0 .573-.162 1.409-.681 2.129-.554.774-1.468 1.341-2.78 1.341a3.643 3.643 0 0 1-1.63-.357c-.283 2.207-1.108 5.171-3.52 7.588-2.148 2.157-3.203 4.828-3.721 6.911a18.464 18.464 0 0 0-.514 3.405l-.008.218v.062l-.002.02v.008l-.004.058a2.486 2.486 0 0 1-.03.244c-.04.258-.119.508-.233.742a1.58 1.58 0 0 1-.544.643c-.238.159-.598.298-1.167.298a3.96 3.96 0 0 1-3.754-2.714 3.98 3.98 0 0 1 1.38-4.43.992.992 0 0 0 .365-1.042.988.988 0 0 0-1.553-.546c-.997.75-1.733 1.795-2.104 2.988s-.359 2.472.035 3.658 1.15 2.216 2.161 2.947a5.929 5.929 0 0 0 3.471 1.123h15.828v-.992c0-.804-.372-2.076-1.45-2.643a3.158 3.158 0 0 0-1.518-.333h-1.979a.991.991 0 0 1-.99-.993.995.995 0 0 1 .99-.993h1.979c.348 0 .678.026.989.079v-5.04c0-.263.105-.515.29-.702a.983.983 0 0 1 1.4 0c.186.186.29.438.29.702v5.85c1.563 1.131 1.979 3.012 1.979 4.072v.992h4.946a.99.99 0 0 0 .989-.993c0-1.726-.585-3.022-1.592-3.863a4.806 4.806 0 0 0-2.364-1.022V9.921h.989c.787 0 1.542-.314 2.098-.872s.869-1.315.869-2.105V4.529a1.99 1.99 0 0 0-.959-1.701L65.379.705a4.936 4.936 0 0 0-2.544-.706h-2.861z"/>
      <path d="M84.989 31.67a3.943 3.943 0 0 0 3.627-2.386 3.969 3.969 0 0 0-.739-4.287l-1.193-1.284a3.272 3.272 0 0 1 .078-4.538L87.934 18a.752.752 0 0 0-.531-1.272.744.744 0 0 0-.526.211l-1.171 1.175a4.78 4.78 0 0 0-.114 6.624l1.193 1.284a2.468 2.468 0 0 1-1.795 4.148h-.753c.003-.306.002-.691-.012-1.129-.039-1.141-.165-2.677-.524-4.224-.359-1.539-.961-3.15-1.991-4.39-.918-1.105-2.164-1.899-3.805-2.084v-4.408c-.002-.87-.347-1.704-.961-2.319s-1.445-.961-2.313-.962c-.76 0-1.377.62-1.377 1.384v.725h-1.762c-.988 0-1.902.512-2.423 1.354l-.651 1.054c-1.139 1.845.102 4.21 2.208 4.361v9.806a2.329 2.329 0 0 0 2.324 2.333h.828v-2.333a3.909 3.909 0 0 1 1.143-2.768 3.905 3.905 0 0 1 2.76-1.147h1.314a.749.749 0 0 1 .749.751.749.749 0 0 1-.749.751h-1.314a2.41 2.41 0 0 0-2.405 2.414v2.333h9.714z"/>
    </symbol>
  </defs>
</svg>
