<svg xmlns="http://www.w3.org/2000/svg" aria-hidden="true" style="position:absolute;width:0;height:0;overflow:hidden">
  <defs>
    <symbol id="icon-order-details-7" viewBox="0 0 32 32">
      <path d="M3.556 32c-.978 0-1.815-.348-2.51-1.044S.002 29.423.001 28.444V3.555c0-.978.348-1.815 1.045-2.51S2.58.001 3.556 0h14.222c.504 0 .926.171 1.268.512s.511.763.51 1.266c-.001.503-.172.925-.512 1.268s-.762.513-1.266.51H3.556v24.889h24.889V14.223c0-.504.171-.926.512-1.266s.763-.511 1.266-.512c.503-.001.925.169 1.268.512s.513.764.51 1.266v14.222c0 .978-.348 1.815-1.044 2.512s-1.533 1.045-2.512 1.044H3.556zm7.111-7.111c-.504 0-.926-.171-1.266-.512s-.511-.763-.512-1.266c-.001-.503.169-.924.512-1.266s.764-.512 1.266-.512h10.667c.504 0 .926.171 1.268.512s.511.763.51 1.266c-.001.503-.172.925-.512 1.268s-.762.513-1.266.51H10.667zm0-5.333c-.504 0-.926-.171-1.266-.512s-.511-.763-.512-1.266c-.001-.503.169-.924.512-1.266S10.165 16 10.667 16h10.667c.504 0 .926.171 1.268.512s.511.763.51 1.266c-.001.503-.172.925-.512 1.268s-.762.513-1.266.51H10.667zm0-5.334c-.504 0-.926-.171-1.266-.512s-.511-.763-.512-1.266c-.001-.502.169-.924.512-1.266s.764-.512 1.266-.512h10.667c.504 0 .926.171 1.268.512s.511.763.51 1.266c-.001.502-.172.925-.512 1.268s-.762.513-1.266.51H10.667zm16-3.555c-.504 0-.926-.171-1.266-.512s-.511-.763-.512-1.266V7.111h-1.778c-.504 0-.926-.171-1.266-.512s-.511-.763-.512-1.266c-.001-.503.169-.924.512-1.266s.764-.512 1.266-.512h1.778V1.777c0-.504.171-.926.512-1.266s.763-.511 1.266-.512c.503-.001.925.169 1.268.512s.513.764.51 1.266v1.778h1.778c.504 0 .926.171 1.268.512s.511.763.51 1.266c-.001.503-.172.925-.512 1.268s-.762.513-1.266.51h-1.778v1.778c0 .504-.171.926-.512 1.268s-.763.511-1.266.51z"/>
    </symbol>
    <symbol id="icon-client-email-6" viewBox="0 0 37 32">
      <path d="M30.24 17.564 19.487 28.337v3.662h3.649l10.736-10.791zm6.431-.533-2.268-2.276a.919.919 0 0 0-.673-.303c-.266.018-.514.107-.691.302l-1.772 1.778 3.632 3.556 1.772-1.778a.937.937 0 0 0 0-1.28zm-20.727 7.858H3.543V7.111L17.715 16l14.172-8.889v3.556h3.543V3.556C35.43 1.6 33.836 0 31.887 0H3.543C1.594 0 0 1.6 0 3.556v21.333c0 1.956 1.594 3.556 3.543 3.556h12.401v-3.556zM31.887 3.556l-14.172 8.889L3.543 3.556h28.344z"/>
    </symbol>
    <symbol id="icon-client-address-3" viewBox="0 0 39 32">
      <path d="M27.897 6.974h3.487v3.487h-3.487V6.974zm0 6.975h3.487v3.487h-3.487v-3.487zm0 6.974h3.487v3.487h-3.487v-3.487zM0 13.949v17.436h10.462v-8.718h3.487v8.718h10.462V13.949L12.206 5.231.001 13.949zm20.923 13.948h-3.487v-8.718H6.974v8.718H3.487V15.692l8.718-6.103 8.718 6.103v12.205z"/>
      <path d="M15.692 0v3.435l3.487 2.493V3.487h15.692v24.41h-6.974v3.487h10.462V-.001H15.692z"/>
    </symbol>
    <symbol id="icon-time-and-date-4" viewBox="0 0 29 32">
      <path d="M5.904 14.171h3.307v3.149H5.904v-3.149zm0 6.299h3.307v3.149H5.904V20.47zm6.613-6.299h3.307v3.149h-3.307v-3.149zm0 6.299h3.307v3.149h-3.307V20.47zm6.614-6.299h3.307v3.149h-3.307v-3.149zm0 6.299h3.307v3.149h-3.307V20.47z"/>
      <path d="M3.149 31.886h22.044c1.737 0 3.149-1.43 3.149-3.189V6.377c0-1.758-1.412-3.189-3.149-3.189h-3.149V-.001h-3.149v3.189H9.447V-.001H6.298v3.189H3.149C1.412 3.188 0 4.618 0 6.377v22.32c0 1.759 1.412 3.189 3.149 3.189zm22.045-22.32.002 19.131H3.15V9.566h22.044z"/>
    </symbol>
    <symbol id="icon-prise-5" viewBox="0 0 38 32">
      <path d="M32.337 0c1.072 0 2.1.421 2.858 1.172S36.379 2.94 36.379 4v4.536c.614.351 1.125.856 1.479 1.464s.542 1.298.542 2v8c0 .702-.187 1.392-.542 2s-.865 1.113-1.479 1.464V28c0 1.061-.426 2.078-1.184 2.828S33.409 32 32.337 32H4.042c-1.072 0-2.1-.421-2.858-1.172S0 29.06 0 28V4c0-1.061.426-2.078 1.184-2.828S2.97 0 4.042 0h28.295zm0 4H4.042v24h28.295v-4h-8.084c-2.109 0-4.135-.816-5.645-2.273s-2.384-3.441-2.437-5.527c-.053-2.086.721-4.111 2.155-5.641s3.416-2.445 5.523-2.549l.404-.01h8.084V4zm2.021 8H24.253c-1.072 0-2.1.421-2.858 1.172S20.211 14.94 20.211 16s.426 2.078 1.184 2.828A4.064 4.064 0 0 0 24.253 20h10.105v-8zm-8.084 2c.536 0 1.05.211 1.429.586s.592.884.592 1.414-.213 1.039-.592 1.414a2.032 2.032 0 0 1-2.858 0c-.379-.375-.592-.884-.592-1.414s.213-1.039.592-1.414A2.032 2.032 0 0 1 26.274 14z"/>
    </symbol>
    <symbol id="icon-place-2" viewBox="0 0 45 32">
      <path d="m0 18.65 1.007-4h11.082l-1.007 4H.001zM13.096 32c-1.679 0-3.106-.583-4.281-1.75S7.052 27.667 7.052 26H2.015l1.007-4.35h10.427l1.813-7.3h4.231l2.519-10H8.059l.302-1.2c.201-.933.664-1.691 1.386-2.274S11.317.001 12.29 0h22.969l-1.864 8h5.893l6.044 8-2.015 10h-4.03c0 1.667-.588 3.083-1.763 4.25S34.922 32 33.243 32c-1.679 0-3.106-.583-4.281-1.75s-1.763-2.583-1.763-4.25H19.14c0 1.667-.588 3.083-1.763 4.25S14.775 32 13.096 32zM4.03 11.35l1.007-4h13.096l-1.007 4H4.03zM13.096 28c.571 0 1.05-.192 1.437-.576s.58-.859.578-1.424-.195-1.04-.58-1.424c-.385-.384-.864-.576-1.434-.576s-1.049.192-1.435.576-.579.859-.58 1.424c-.001.565.192 1.041.58 1.426s.866.577 1.435.574zm20.148 0c.571 0 1.05-.192 1.437-.576s.58-.859.578-1.424c-.001-.565-.195-1.04-.58-1.424S33.815 24 33.244 24c-.571 0-1.049.192-1.435.576s-.579.859-.58 1.424c-.001.565.192 1.041.58 1.426s.866.577 1.435.574zm-2.165-10H40.8l.201-1.05L37.274 12h-4.785l-1.41 6z"/>
    </symbol>
    <symbol id="icon-service-1" viewBox="0 0 32 32">
      <path d="M0 0v32h32V11.314l-5.25 5.25V26.75H5.25V5.25h10.186L20.686 0H0zm27.467.404-11.578 11.58-4.137-4.137-4.242 4.244 8.379 8.377 15.82-15.822L27.467.404z"/>
    </symbol>
  </defs>
</svg>
